<?xml version="1.0" standalone="no"?>
<!DOCTYPE svg PUBLIC "-//W3C//DTD SVG 20010904//EN"
 "http://www.w3.org/TR/2001/REC-SVG-20010904/DTD/svg10.dtd">
<svg version="1.0" xmlns="http://www.w3.org/2000/svg"
 width="1080.000000pt" height="1080.000000pt" viewBox="0 0 1080.000000 1080.000000"
 preserveAspectRatio="xMidYMid meet">
<metadata>
Created by potrace 1.14, written by Peter Selinger 2001-2017
</metadata>
<g transform="translate(0.000000,1080.000000) scale(0.100000,-0.100000)"
fill="#000000" stroke="none">
<path d="M0 5400 l0 -5400 5400 0 5400 0 0 5400 0 5400 -5400 0 -5400 0 0
-5400z m5545 4555 c440 -16 935 -124 1395 -302 166 -64 513 -238 670 -335 762
-471 1369 -1160 1726 -1960 186 -419 298 -830 361 -1323 25 -200 25 -749 0
-955 -68 -553 -198 -997 -432 -1475 -509 -1041 -1416 -1841 -2516 -2220 -404
-139 -788 -211 -1254 -236 -299 -15 -567 0 -890 52 -1272 205 -2391 961 -3070
2074 -78 129 -267 508 -320 645 -279 714 -373 1448 -279 2185 107 837 453
1631 993 2280 102 121 363 387 486 494 664 579 1482 943 2360 1051 171 22 473
39 575 33 30 -1 118 -5 195 -8z"/>
<path d="M4085 9010 c-225 -23 -429 -67 -625 -135 -755 -263 -1342 -863 -1591
-1629 -130 -400 -155 -911 -63 -1325 157 -712 599 -1307 1244 -1679 481 -276
1083 -385 1645 -296 327 52 623 159 913 331 79 47 95 54 107 42 78 -83 186
-224 182 -237 -3 -10 -17 -45 -32 -79 -49 -118 -43 -255 16 -378 20 -43 182
-243 579 -715 612 -728 616 -732 685 -778 129 -86 317 -94 463 -22 63 32 363
278 404 332 34 45 73 124 88 177 18 67 14 187 -9 262 -26 82 -61 132 -263 372
-90 107 -335 399 -546 650 -211 251 -401 472 -422 491 -111 100 -282 139 -438
100 -35 -9 -67 -12 -71 -8 -19 22 -168 201 -179 216 -12 15 -4 27 57 99 499
576 710 1333 585 2089 -41 246 -113 466 -229 705 -125 255 -278 468 -485 676
-240 240 -530 434 -836 560 -106 43 -361 120 -459 138 -183 35 -566 56 -720
41z m468 -481 c602 -75 1132 -401 1470 -904 417 -623 469 -1421 135 -2090
-240 -479 -684 -868 -1183 -1033 -532 -176 -1080 -146 -1570 87 -223 106 -390
225 -571 405 -382 382 -590 858 -611 1396 -28 742 329 1423 962 1833 398 257
885 366 1368 306z"/>
<path d="M2983 7148 c-99 -158 -166 -330 -200 -515 -25 -136 -23 -370 5 -511
58 -288 185 -525 397 -738 199 -201 433 -329 708 -388 300 -65 655 -19 922
118 l80 41 -125 6 c-148 8 -230 21 -365 56 -639 166 -1147 670 -1314 1305 -49
185 -64 317 -59 526 2 100 4 182 3 182 0 0 -24 -37 -52 -82z"/>
</g>
</svg>
